# xmcd
#
# Track frame offsets: 
#        150
#        19033
#        42423
#        65217
#        80046
#        94359
#        116827
#        134310
#        149866
#        171426
#        191192
#
# Disc length: 2768 seconds
#
# Revision: 0
# Processed by: cddbd v1.5.2PL0 Copyright (c) Steve Scherf et al.
# Submitted via: ExactAudioCopy v0.99pb5
#
DISCID=b40ace0b
DTITLE=Günther Brackmann - BlueRaBoo
DYEAR=2008
DGENRE=Blues
TTITLE0=Theme From Boogie House Jam
TTITLE1=Death Ray Boogie
TTITLE2=Poor Man
TTITLE3=Always Late
TTITLE4=Frankie and Johnny
TTITLE5=Dark Eyes
TTITLE6=Talk To Me Baby
TTITLE7=Sea Cruise
TTITLE8=Dallas Rag
TTITLE9=Mojo Boogie
TTITLE10=Low Down Dog
EXTD=
EXTT0=
EXTT1=
EXTT2=
EXTT3=
EXTT4=
EXTT5=
EXTT6=
EXTT7=
EXTT8=
EXTT9=
EXTT10=
PLAYORDER=
